<svg fill="none" height="24" viewBox="0 0 24 24" width="24" xmlns="http://www.w3.org/2000/svg"><g fill="#ffbb09"><path d="m18.544 5.95467c1.3842 0 2.5063-1.10914 2.5063-2.47734 0-1.36819-1.1221-2.47733-2.5063-2.47733s-2.5063 1.10914-2.5063 2.47733c0 1.3682 1.1221 2.47734 2.5063 2.47734z"/><path d="m2.41932 12.9809c-.50355-.2275-1.09837-.0085-1.32857.4892-.230192.4978-.00859 1.0857.49496 1.3133l17.52959 7.9209c.7392.3599 1.501.3813 2.1664.1183.6475-.2561 1.1337-.7526 1.4172-1.313.2835-.5605.3936-1.2428.2123-1.9085-.1877-.6893-.668-1.2826-1.4125-1.6506-.4953-.2448-1.0975-.0464-1.3451.4431s-.0468 1.0848.4484 1.3295c.3651.1805.4891.5333.3035.9001-.1857.3671-.5452.4807-.9106.3001l-.0157-.0078-8.0197-3.6238 3.1471-1.8664c.5018-.2976.6401-.955.3-1.4257l-1.8752-2.5948.5895-.5826 2.7269 1.3476c.2478.15.5209.2259.8112.2259h2.3888c.5537 0 1.0025-.4436 1.0025-.9909s-.4488-.9909-1.0025-.9909h-1.1558c-.49 0-.9083-.3502-.9889-.82806l-.178-1.05622c-.1823-1.08069-.9346-1.70718-1.727-2.35986-.8203-.67573-2.0326-.59735-2.7569.17826l-1.1652 1.24771-5.11383-2.52738c-.49522-.24475-1.0974-.04634-1.34501.44316s-.04688 1.08472.44834 1.32947l4.5947 2.27082-.5485.58733c-.83609.89537-.66454 2.31737.3611 2.99327l1.8734 1.2345c.3122.2057.2934.6652-.0346.8453l-2.67597 1.4695z"/></g></svg>
